Coordinates
version=1
nRows=7
nColumns=32
inDegrees=yes

Units are S.I. units (second, meters, Newtons, ...)
If the header above contains a line with 'inDegrees', this indicates whether rotational values are in degrees (yes) or radians (no).

endheader
time	pelvis_tilt	pelvis_list	pelvis_rotation	pelvis_tx	pelvis_ty	pelvis_tz	hip_flexion_r	hip_adduction_r	hip_rotation_r	knee_angle_r	knee_adduction_r	med_cond_adduction_r	lat_cond_adduction_r	patella_r_constrained_knee_angle	ankle_angle_r	subtalar_angle_r	mtp_angle_r	hip_flexion_l	hip_adduction_l	hip_rotation_l	knee_angle_l	knee_adduction_l	med_cond_adduction_l	lat_cond_adduction_l	patella_l_constrained_knee_angle	ankle_angle_l	subtalar_angle_l	mtp_angle_l	lumbar_extension	lumbar_bending	lumbar_rotation
      0.98500000	      7.65512256	     10.05715686	      0.98428102	      0.61897742	      0.94393616	      0.19138695	     12.76466933	    -35.64621684	    -30.56022083	    -73.65962055	      0.00000000	     -0.00000000	      0.00000000	     -1.28560290	     -7.35679061	     13.71617319	     -0.00000000	    -12.75761476	     12.53450524	    -13.00199660	      9.56598526	      0.00000000	     -0.00000000	      0.00000000	      0.16695794	    -10.73786786	     13.03919375	     -0.00000000	    -21.52893253	     -9.49531969	     -8.07160442
      0.99000000	      7.73005848	      9.80190193	      1.15170056	      0.62511421	      0.94448002	      0.19113925	     13.30108708	    -35.13158339	    -30.79109915	    -72.96823393	      0.00000000	      0.00000000	     -0.00000000	     -1.27353593	     -6.80039210	     14.34648851	      0.00000000	    -13.31145189	     12.23412247	    -13.41813555	      9.58691523	      0.00000000	      0.00000000	     -0.00000000	      0.16732324	    -10.32426884	     13.96134031	      0.00000000	    -21.66655561	     -9.14415948	     -8.06536396
      0.99500000	      7.78805803	      9.51421354	      1.65084938	      0.63105177	      0.94511115	      0.19032153	     13.55687245	    -34.65117931	    -31.44168345	    -72.12598973	     -0.00000000	      0.00000000	     -0.00000000	     -1.25883600	     -6.31792646	     14.96629165	      0.00000000	    -13.87780773	     11.82770353	    -13.12122799	      9.61064506	      0.00000000	      0.00000000	     -0.00000000	      0.16773740	     -9.97573980	     14.25650324	      0.00000000	    -21.87487703	     -8.60987753	     -8.30634683
      1.00000000	      7.87356233	      9.28601289	      1.86563269	      0.63709612	      0.94555435	      0.19003429	     14.00718562	    -34.16595543	    -31.74668594	    -71.28737261	      0.00000000	      0.00000000	     -0.00000000	     -1.24419937	     -5.85875446	     15.59327570	      0.00000000	    -14.43490745	     11.53194288	    -13.34782376	      9.62777912	     -0.00000000	      0.00000000	     -0.00000000	      0.16803645	     -9.60198580	     14.93011483	     -0.00000000	    -22.05641928	     -8.23840946	     -8.21850536
      1.00500000	      7.96716829	      8.98216064	      2.24778634	      0.64307579	      0.94606679	      0.18946085	     14.25645106	    -33.61537318	    -32.29573465	    -70.30054924	      0.00000000	     -0.00000000	      0.00000000	     -1.22697605	     -5.44160695	     16.17246461	      0.00000000	    -15.01315844	     11.10793860	    -13.17759225	      9.64568511	     -0.00000000	      0.00000000	     -0.00000000	      0.16834896	     -9.21762263	     15.27029840	      0.00000000	    -22.25753259	     -7.68438711	     -8.20368425
      1.01000000	      8.05365596	      8.73173996	      2.56065994	      0.64905597	      0.94643595	      0.18903007	     14.56676017	    -33.11040317	    -32.75545935	    -69.28723116	     -0.00000000	      0.00000000	     -0.00000000	     -1.20929031	     -5.05247303	     16.72960405	     -0.00000000	    -15.56789190	     10.75038716	    -13.12452951	      9.65836221	     -0.00000000	     -0.00000000	      0.00000000	      0.16857022	     -8.84424816	     15.66159436	      0.00000000	    -22.45873291	     -7.30892058	     -8.42774938
      1.01500000	      8.15636132	      8.47540161	      2.83110099	      0.65502735	      0.94675866	      0.18870487	     14.86769507	    -32.57006345	    -33.17088182	    -68.20883825	      0.00000000	      0.00000000	     -0.00000000	     -1.19046881	     -4.68672639	     17.22747260	      0.00000000	    -16.12891756	     10.38450680	    -13.08917164	      9.67105331	      0.00000000	      0.00000000	     -0.00000000	      0.16879172	     -8.46125580	     16.01631409	     -0.00000000	    -22.66456784	     -6.84618245	     -8.27391770
